PathFileType	4	(X/Y/Z)	Patient4_TMGait_0pt3_02_right_13.trc.trc
DataRate	CameraRate	NumFrames	NumMarkers	Units	OrigDataRate	OrigDataStartFrame	OrigNumFrames
53.231939163498	53.231939163498	4	33	mm	53.231939163498	18	       141
Frame#	Time	Sacral			L.Shoulder			Chest			R.Shoulder			Neck			R.ASIS			L.ASIS			R.Thigh.Superior			R.Thigh.Lateral			R.Thigh.Inferior			R.Patella			L.Thigh.Superior			L.Thigh.Lateral			L.Thigh.Inferior			L.Patella			L.Shank.Superior			L.Shank.Lateral			L.Shank.Inferior			R.Shank.Superior			R.Shank.Lateral			R.Shank.Inferior			R.Heel			R.Midfoot.Superior			R.Midfoot.Lateral			R.Toe			L.Heel			L.Midfoot.Lateral			L.Midfoot.Superior			L.Toe			L.Elbow			L.Wrist			R.Elbow			R.Wrist			
		X1	Y1	Z1	X2	Y2	Z2	X3	Y3	Z3	X4	Y4	Z4	X5	Y5	Z5	X6	Y6	Z6	X7	Y7	Z7	X8	Y8	Z8	X9	Y9	Z9	X10	Y10	Z10	X11	Y11	Z11	X12	Y12	Z12	X13	Y13	Z13	X14	Y14	Z14	X15	Y15	Z15	X16	Y16	Z16	X17	Y17	Z17	X18	Y18	Z18	X19	Y19	Z19	X20	Y20	Z20	X21	Y21	Z21	X22	Y22	Z22	X23	Y23	Z23	X24	Y24	Z24	X25	Y25	Z25	X26	Y26	Z26	X27	Y27	Z27	X28	Y28	Z28	X29	Y29	Z29	X30	Y30	Z30	X31	Y31	Z31	X32	Y32	Z32	X33	Y33	Z33	

18	24.719357142857	714.584027917086	999.641562573214	377.109159018838	935.860357522690	1444.656919546798	272.552099904659	985.191111337737	1361.310229258655	450.053680859516	851.330459173423	1420.313671999408	595.961794605745	877.725138135980	1492.196341585266	425.362966479395	918.997248671327	942.675177329552	540.780553009040	958.634513241542	961.562656262026	269.393228675378	999.638262281796	766.127696126386	516.962975629870	947.748218786652	647.680369306976	589.490233636366	1038.388157450436	604.022696940217	515.559247091327	1064.906590333797	510.554653342440	541.003563241382	973.173193668646	730.526632868698	313.082088017578	879.304611727234	618.487323712202	245.791180420679	937.355331329031	537.496180835975	328.077445813324	926.492708265708	467.817281431662	340.839806502888	887.414524038206	398.781995802662	331.774268704828	789.880178238504	295.687196839410	272.862893240141	808.147649262001	184.538450730931	357.617955562460	1022.692385757153	424.233946693102	555.471757495863	935.221789123936	335.562501889556	621.582666423903	979.102377309238	229.990413762258	579.605788286840	840.051697423309	64.051744080088	558.178184913031	1010.433395504515	114.566785630648	601.319067735157	920.782254801787	53.649889684230	635.759401054761	1126.951616707723	64.366092852149	635.792997703488	656.137493744120	40.023531040770	387.763953927700	737.604746693837	35.679089888951	315.097871900123	819.980598591581	95.272969088179	349.856721724677	949.117356074517	39.857915477994	333.799525415614	1059.322218687180	1139.950428242308	115.810593202861	1307.452489437460	1141.610729816714	181.643333723303	663.600398916140	1121.538994591905	649.803452772891	615.553939993925	867.061404143423	677.038413685197	
19	24.738142857143	713.612262877482	998.653610254585	378.601585637301	936.524138317662	1443.406682383263	276.309572863182	984.113303471107	1359.995982940461	454.277893638276	849.141818365303	1419.472551028991	599.056500659190	877.293558516400	1491.170222953453	428.637975472801	916.308516237275	941.191381273276	544.198920599912	958.433610827740	960.560476785488	272.979415334276	996.068449816219	764.021224039175	521.958820799778	942.303833569785	645.467996411350	593.089679996820	1034.166485754220	602.125474950382	520.527486188610	1060.403347226694	510.128807550148	544.764003542308	970.209097905310	729.382589374784	315.885543252060	875.418540409395	618.661286569043	246.754076023541	931.532284502347	536.709107718659	329.022183166783	919.622451077625	467.352573022014	341.424396957969	881.077438172188	398.600701029016	332.095676220642	783.800611276884	295.384568886563	272.842673453941	802.057111563033	184.279269892490	357.708863921998	1021.235173330830	423.142491095126	558.586781906887	937.113186511087	331.094522963744	624.825802135551	984.578344479142	227.179711799005	582.112172554721	851.007628730358	56.939766878973	560.696917924278	1020.099818306914	112.256584739749	603.002009867364	932.493790676737	48.529092736100	637.760361585157	1138.506926534809	65.457728630915	636.593234267304	650.336716154745	39.544272400596	387.720999780898	731.800808659477	35.399303680712	314.989313772742	814.096951832613	95.138310444755	349.881837625999	943.371482757236	39.939964489074	333.915127604111	1062.252496633905	1140.362836538027	119.106065295920	1309.354785507587	1153.260873740098	186.498365585717	660.336121619364	1120.945614919107	648.422515686219	611.045388630529	866.334104353722	673.035029119498	
20	24.756928571429	712.825415889056	997.372958152185	380.499953685174	937.110772382284	1441.887250428139	280.272295696656	983.231149172860	1358.453243954501	458.652706962469	847.340442828016	1418.358059680260	602.489294777218	876.990445679714	1489.896443997817	432.206788330341	913.916527267384	939.394116976534	547.793481848826	958.340160199041	959.353580800261	276.739584264467	992.863654448622	761.610666860036	527.019177677289	937.161200376256	642.877305626418	596.459972622348	1030.352821674408	599.932158911434	525.357677318807	1055.989345766762	509.096161035817	548.322789083549	967.794759691713	728.186150788754	318.782479894296	872.186719610149	618.649468413849	248.024193926057	926.619537917922	535.828452754772	330.195926931177	913.773776077828	466.700282734400	342.237357208753	875.535554010288	398.221163553173	332.659808654214	778.248630361937	295.155635984055	273.008184495284	796.264215236454	183.972071559866	357.849063942887	1019.356174984563	421.556018714700	561.438580627557	937.863833907470	326.868058264478	627.484356282921	988.136079968344	224.436520792024	584.046900374824	858.890630391098	51.439367963953	562.247033167672	1026.910183335546	110.060963255233	604.206789436225	940.728934617756	44.445414910444	639.017673485467	1146.458088415100	65.592473196097	637.124526110345	644.571381335972	39.206071442516	387.681451512357	726.036029826539	35.183945142163	314.906878191237	808.273887450788	95.020996961413	349.910296872076	937.647901920368	39.979101012682	334.011557703159	1064.658875811596	1140.130258847227	122.755809207176	1310.488137925838	1162.870153920647	191.260718306796	658.720101705284	1119.184677568365	647.805383186553	609.862953495371	864.100985010389	669.618577534730	
21	24.775714285714	712.244019373191	995.947639500548	382.801847961029	937.642835386399	1440.229066561180	284.446428616957	982.556586125396	1356.813215195276	463.187753502757	845.914186285012	1417.101074076344	606.255805458592	876.811623259773	1488.490189163229	436.070180230004	911.884170687996	937.424828154090	551.561788346918	958.379837972639	958.056607764979	280.676031296199	990.132253911333	759.062704197765	531.994808081501	932.501911677167	640.088193522104	599.521129802320	1027.038672882480	597.590299273243	529.894030520142	1051.820191518222	507.594314577364	551.567774906980	965.919173454296	726.961035715103	321.748838544594	869.522506326412	618.502187018473	249.628132604882	922.545548710523	534.881562107825	331.610135948080	908.874373209437	465.892295798254	343.295241368349	870.714706007976	397.691436154753	333.475406878121	773.156790532918	295.038188774971	273.380192304406	790.744799282734	183.647212609383	358.048355216563	1017.180636311319	419.582845346413	563.961913987816	937.585079553188	322.946573238333	629.571444145320	989.852833860331	221.759204320079	585.403282900454	863.659694343845	47.402173405867	562.935450470819	1030.924440652254	107.960804869813	604.938717832676	945.530916038983	41.323485827679	639.633119837142	1150.985183424327	64.800218898449	637.413049576760	638.843343472137	39.011604778471	387.645302223351	720.312028366631	35.038268899679	314.856475242725	802.513834600213	94.930128745100	349.941454219043	931.946318913302	39.974239352989	334.085050129808	1066.475116489111	1139.336458797596	126.754818620457	1310.950325789726	1170.434217554056	195.931696032872	658.595869872695	1116.492164946800	648.007527635382	611.776599800962	860.648649784822	667.019117738056	
